<svg width="51" height="41" viewBox="0 0 51 41" fill="none" xmlns="http://www.w3.org/2000/svg">
<path d="M50.1211 4.82031C48.2734 5.64062 46.293 6.19141 44.2109 6.44141C46.3359 5.16797 47.9688 3.15234 48.7344 0.753906C46.75 1.92969 44.543 2.78516 42.2031 3.24609C40.3281 1.24609 37.6562 0 34.6992 0C29.0195 0 24.4141 4.60156 24.4141 10.2812C24.4141 11.0859 24.5078 11.8711 24.6836 12.625C16.1367 12.1953 8.5625 8.10156 3.48828 1.87891C2.60156 3.40234 2.09766 5.16797 2.09766 7.05078C2.09766 10.6172 3.91016 13.7656 6.67187 15.6133C4.98437 15.5586 3.39844 15.0938 2.01172 14.3242C2.01172 14.3672 2.01172 14.4102 2.01172 14.4531C2.01172 19.4375 5.55859 23.5898 10.2578 24.5391C9.39844 24.7734 8.48828 24.8984 7.55078 24.8984C6.88672 24.8984 6.24219 24.8359 5.61328 24.7109C6.92578 28.793 10.7227 31.7734 15.2188 31.8555C11.7031 34.6133 7.26953 36.2539 2.44922 36.2539C1.61719 36.2539 0.800782 36.207 0 36.1094C4.54688 39.0312 9.95312 40.7305 15.7617 40.7305C34.6758 40.7305 45.0195 25.0625 45.0195 11.4766C45.0195 11.0313 45.0078 10.582 44.9922 10.1445C47 8.69531 48.7422 6.88281 50.1211 4.82031Z" fill="#4F575B"/>
</svg>
